<svg fill="none" viewBox="0 0 390 155" xmlns="http://www.w3.org/2000/svg">
  <g clip-path="url(#a)">
    <path d="m177.316 47.02-6.936 4.896c1.043 2.221 2.493 4.284 4.352 6.188 1.859 1.904 4.035 3.423 6.528 4.556 2.539 1.088 5.259 1.632 8.16 1.632 2.176 0 4.239-.34 6.188-1.02 1.995-.635 3.785-1.564 5.372-2.788a13.702 13.702 0 0 0 3.74-4.624c.907-1.813 1.36-3.876 1.36-6.188 0-2.04-.34-3.83-1.02-5.372-.635-1.587-1.541-2.947-2.72-4.08a16.69 16.69 0 0 0-3.876-2.992 26.045 26.045 0 0 0-4.42-2.04c-2.403-.816-4.397-1.61-5.984-2.38-1.587-.816-2.765-1.655-3.536-2.516a4.688 4.688 0 0 1-1.156-3.128c0-1.179.476-2.199 1.428-3.06.952-.907 2.38-1.36 4.284-1.36 1.451 0 2.743.295 3.876.884a9.615 9.615 0 0 1 2.992 2.244 13.931 13.931 0 0 1 2.312 3.06l7.616-4.216c-.816-1.677-1.972-3.287-3.468-4.828-1.451-1.587-3.287-2.879-5.508-3.876-2.176-1.043-4.783-1.564-7.82-1.564-2.947 0-5.621.544-8.024 1.632-2.357 1.043-4.239 2.561-5.644 4.556-1.36 1.95-2.04 4.284-2.04 7.004 0 2.267.431 4.216 1.292 5.848a14.387 14.387 0 0 0 3.264 4.08 21.77 21.77 0 0 0 4.148 2.72 53.662 53.662 0 0 0 3.944 1.632c2.131.816 3.921 1.587 5.372 2.312 1.496.68 2.607 1.473 3.332 2.38.771.907 1.156 2.108 1.156 3.604 0 1.723-.612 3.083-1.836 4.08-1.224.997-2.811 1.496-4.76 1.496-1.677 0-3.241-.363-4.692-1.088-1.451-.725-2.788-1.745-4.012-3.06-1.179-1.315-2.267-2.856-3.264-4.624Zm39.888-4.964h34.952v-8.772h-34.952v8.772ZM245.968 15.4V63h9.724V15.4h-9.724Zm-31.96 0V63h9.724V15.4h-9.724Zm59.478 23.8c0-3.037.634-5.735 1.904-8.092 1.269-2.357 3.014-4.216 5.236-5.576 2.221-1.36 4.805-2.04 7.752-2.04 2.992 0 5.598.68 7.82 2.04 2.221 1.36 3.944 3.219 5.168 5.576 1.224 2.357 1.836 5.055 1.836 8.092 0 3.037-.635 5.735-1.904 8.092-1.224 2.357-2.947 4.216-5.168 5.576-2.222 1.36-4.806 2.04-7.752 2.04-2.947 0-5.531-.68-7.752-2.04-2.222-1.36-3.967-3.219-5.236-5.576-1.27-2.357-1.904-5.055-1.904-8.092Zm-10.268 0c0 3.581.612 6.913 1.836 9.996 1.224 3.037 2.969 5.69 5.236 7.956 2.266 2.267 4.918 4.035 7.956 5.304 3.082 1.224 6.46 1.836 10.132 1.836 3.672 0 7.026-.612 10.064-1.836 3.082-1.27 5.734-3.037 7.956-5.304 2.266-2.267 4.012-4.919 5.236-7.956 1.269-3.083 1.904-6.415 1.904-9.996 0-3.627-.635-6.936-1.904-9.928-1.224-3.037-2.992-5.667-5.304-7.888-2.267-2.221-4.919-3.921-7.956-5.1-3.038-1.224-6.37-1.836-9.996-1.836-3.582 0-6.914.612-9.996 1.836-3.038 1.179-5.69 2.879-7.956 5.1-2.267 2.221-4.035 4.85-5.304 7.888-1.27 2.992-1.904 6.301-1.904 9.928Zm99.434 5.78-13.396-31.96-13.26 31.96L325.66 15.4h-11.424l19.992 50.252 15.028-31.28 14.96 31.28 20.06-50.252h-11.424l-10.2 29.58ZM180.716 114.2c0-3.037.635-5.735 1.904-8.092s3.015-4.216 5.236-5.576c2.221-1.36 4.805-2.04 7.752-2.04 2.992 0 5.599.68 7.82 2.04 2.221 1.36 3.944 3.219 5.168 5.576 1.224 2.357 1.836 5.055 1.836 8.092 0 3.037-.635 5.735-1.904 8.092-1.224 2.357-2.947 4.216-5.168 5.576-2.221 1.36-4.805 2.04-7.752 2.04s-5.531-.68-7.752-2.04c-2.221-1.36-3.967-3.219-5.236-5.576-1.269-2.357-1.904-5.055-1.904-8.092Zm-10.268 0c0 3.581.612 6.913 1.836 9.996 1.224 3.037 2.969 5.689 5.236 7.956 2.267 2.267 4.919 4.035 7.956 5.304 3.083 1.224 6.46 1.836 10.132 1.836 3.672 0 7.027-.612 10.064-1.836 3.083-1.269 5.735-3.037 7.956-5.304 2.267-2.267 4.012-4.919 5.236-7.956 1.269-3.083 1.904-6.415 1.904-9.996 0-3.627-.635-6.936-1.904-9.928-1.224-3.037-2.992-5.667-5.304-7.888-2.267-2.221-4.919-3.921-7.956-5.1-3.037-1.224-6.369-1.836-9.996-1.836-3.581 0-6.913.612-9.996 1.836-3.037 1.179-5.689 2.879-7.956 5.1-2.267 2.221-4.035 4.851-5.304 7.888-1.269 2.992-1.904 6.301-1.904 9.928Zm64.093-15.3h21.284v-8.5h-21.284v8.5Zm0 18.768h20.604v-8.092h-20.604v8.092ZM228.285 90.4V138h9.384V90.4h-9.384Zm42.713 8.5h21.284v-8.5h-21.284v8.5Zm0 18.768h20.604v-8.092h-20.604v8.092ZM264.742 90.4V138h9.384V90.4h-9.384Z" fill="#35353A"/>
    <path d="M293.512 131.392c0 2.389.859 4.48 2.576 6.272 1.792 1.792 3.995 2.688 6.608 2.688 2.688 0 4.891-.896 6.608-2.688 1.717-1.792 2.576-3.883 2.576-6.272 0-2.539-.859-4.667-2.576-6.384-1.717-1.792-3.92-2.688-6.608-2.688-2.613 0-4.816.896-6.608 2.688-1.717 1.717-2.576 3.845-2.576 6.384Z" fill="#C2C2C2"/>
    <path d="M8 28.194V21c0-7.732 6.268-14 14-14h8.789M8 125.806V133c0 7.732 6.268 14 14 14h8.789M156.728 28.194V21c0-7.732-6.268-14-14-14h-8.789M156.728 125.806V133c0 7.732-6.268 14-14 14h-8.789" stroke="#C2C2C2" stroke-linejoin="round" stroke-width="7"/>
    <g clip-path="url(#b)" clip-rule="evenodd" fill-rule="evenodd">
      <path d="M60.333 16.896a1.97 1.97 0 0 1 1.97-1.97h.986a1.97 1.97 0 0 1 1.97 1.97v.985a1.97 1.97 0 0 1-1.97 1.97h-.985a1.97 1.97 0 0 1-1.97-1.97v-.985Zm9.852 0a1.97 1.97 0 0 1 1.97-1.97h.986a1.97 1.97 0 0 1 1.97 1.97v.985a1.97 1.97 0 0 0 1.97 1.97h.986a1.97 1.97 0 0 0 1.97-1.97v-.985a1.97 1.97 0 0 1 1.97-1.97h.986a1.97 1.97 0 0 1 1.97 1.97v5.911a1.97 1.97 0 0 1-1.97 1.97h-5.911a1.97 1.97 0 0 0-1.97 1.971v5.911a1.97 1.97 0 0 1-1.971 1.97H67.23a1.97 1.97 0 0 0-1.97 1.97v.986a1.97 1.97 0 0 1-1.971 1.97h-.985a1.97 1.97 0 0 1-1.97-1.97V26.748a1.97 1.97 0 0 1 1.97-1.97h.985a1.97 1.97 0 0 0 1.97-1.97v-.986a1.97 1.97 0 0 1 1.97-1.97h.986a1.97 1.97 0 0 0 1.97-1.97v-.986Zm29.556 0a1.97 1.97 0 0 1 1.97-1.97h.985a1.972 1.972 0 0 1 1.971 1.97v.985a1.972 1.972 0 0 1-1.971 1.97h-.985a1.97 1.97 0 0 1-1.97-1.97v-.985Zm-9.852 4.926a1.97 1.97 0 0 1 1.97-1.97h.986a1.97 1.97 0 0 1 1.97 1.97v.985a1.97 1.97 0 0 0 1.97 1.97h.986a1.97 1.97 0 0 1 1.97 1.971v.985a1.97 1.97 0 0 1-1.97 1.97h-.986a1.97 1.97 0 0 0-1.97 1.97v.986a1.97 1.97 0 0 0 1.97 1.97h.986a1.97 1.97 0 0 1 1.97 1.97v.986a1.97 1.97 0 0 1-1.97 1.97h-.986a1.97 1.97 0 0 0-1.97 1.97v5.912a1.97 1.97 0 0 0 1.97 1.97h.986a1.97 1.97 0 0 0 1.97-1.97v-5.911a1.97 1.97 0 0 1 1.97-1.97h.985a1.972 1.972 0 0 1 1.971 1.97v10.837a1.968 1.968 0 0 0 1.97 1.97h.985a1.972 1.972 0 0 1 1.971 1.97v.986a1.972 1.972 0 0 1-1.971 1.97h-.985a1.97 1.97 0 0 0-1.97 1.97v.986a1.972 1.972 0 0 1-1.971 1.97h-.985a1.97 1.97 0 0 1-1.97-1.97v-5.911a1.97 1.97 0 0 0-1.97-1.97h-.986a1.97 1.97 0 0 0-1.97 1.97v.985a1.97 1.97 0 0 1-1.97 1.97h-.986a1.97 1.97 0 0 1-1.97-1.97V46.452a1.97 1.97 0 0 0-1.97-1.97h-.986a1.97 1.97 0 0 1-1.97-1.971v-.985a1.97 1.97 0 0 1 1.97-1.97h.986a1.97 1.97 0 0 0 1.97-1.971V36.6a1.97 1.97 0 0 0-1.97-1.97h-.986a1.97 1.97 0 0 0-1.97 1.97v.985a1.97 1.97 0 0 1-1.97 1.97h-.986a1.97 1.97 0 0 0-1.97 1.97v.986a1.97 1.97 0 0 1-1.97 1.97h-.985a1.97 1.97 0 0 0-1.97 1.97v5.912a1.97 1.97 0 0 0 1.97 1.97h.985a1.97 1.97 0 0 0 1.97-1.97v-5.911a1.97 1.97 0 0 1 1.97-1.97h.986a1.97 1.97 0 0 1 1.97 1.97v10.837a1.97 1.97 0 0 0 1.97 1.97h.986a1.97 1.97 0 0 1 1.97 1.97v.986a1.97 1.97 0 0 1-1.97 1.97h-.986a1.97 1.97 0 0 0-1.97 1.97v.986a1.97 1.97 0 0 1-1.97 1.97h-5.911a1.97 1.97 0 0 0-1.97 1.97v5.911a1.97 1.97 0 0 1-1.971 1.97h-.985a1.97 1.97 0 0 0-1.97 1.971v.985a1.97 1.97 0 0 1-1.971 1.97h-.985a1.97 1.97 0 0 1-1.97-1.97v-.985a1.97 1.97 0 0 0-1.971-1.97h-.985a1.97 1.97 0 0 0-1.97 1.97v.985a1.97 1.97 0 0 1-1.97 1.97h-.986a1.97 1.97 0 0 1-1.97-1.97v-.985a1.97 1.97 0 0 0-1.97-1.97h-5.912a1.97 1.97 0 0 1-1.97-1.97v-.986a1.97 1.97 0 0 0-1.97-1.97H42.6a1.97 1.97 0 0 1-1.97-1.97v-.986a1.97 1.97 0 0 0-1.97-1.97h-.986a1.97 1.97 0 0 1-1.97-1.97v-.986a1.97 1.97 0 0 1 1.97-1.97h.985a1.97 1.97 0 0 0 1.97-1.97v-.986a1.97 1.97 0 0 1 1.971-1.97h5.911a1.97 1.97 0 0 1 1.97 1.97v.986a1.97 1.97 0 0 1-1.97 1.97h-.985a1.97 1.97 0 0 0-1.97 1.97v.986a1.97 1.97 0 0 0 1.97 1.97h.985a1.97 1.97 0 0 1 1.97 1.97v.986a1.97 1.97 0 0 0 1.971 1.97h.985a1.97 1.97 0 0 0 1.97-1.97v-.986a1.97 1.97 0 0 1 1.97-1.97h.986a1.97 1.97 0 0 0 1.97-1.97V56.304a1.97 1.97 0 0 1 1.97-1.97h.986a1.97 1.97 0 0 1 1.97 1.97v5.91a1.97 1.97 0 0 0 1.97 1.971h.986a1.97 1.97 0 0 0 1.97-1.97v-20.69a1.97 1.97 0 0 1 1.97-1.97h.986a1.97 1.97 0 0 0 1.97-1.97V36.6a1.97 1.97 0 0 1 1.97-1.97h.986a1.97 1.97 0 0 0 1.97-1.97v-.986a1.97 1.97 0 0 1 1.97-1.97h.986a1.97 1.97 0 0 0 1.97-1.97v-.986a1.97 1.97 0 0 1 1.97-1.97h.986a1.97 1.97 0 0 0 1.97-1.97v-.986ZM75.111 61.23a1.97 1.97 0 0 1 1.97-1.97h.986a1.97 1.97 0 0 1 1.97 1.97v.986a1.97 1.97 0 0 1-1.97 1.97h-.985a1.97 1.97 0 0 1-1.97-1.97v-.986ZM60.333 46.453a1.97 1.97 0 0 1 1.97-1.97h.986a1.97 1.97 0 0 1 1.97 1.97v.985a1.97 1.97 0 0 1-1.97 1.97h-.985a1.97 1.97 0 0 1-1.97-1.97v-.985Zm-39.407 9.852a1.97 1.97 0 0 1 1.97-1.97H38.66a1.97 1.97 0 0 1 1.97 1.97v.985a1.97 1.97 0 0 1-1.97 1.97h-.985a1.97 1.97 0 0 0-1.97 1.97v.986a1.97 1.97 0 0 1-1.97 1.97h-5.912a1.97 1.97 0 0 1-1.97-1.97v-.986a1.97 1.97 0 0 0-1.97-1.97h-.986a1.97 1.97 0 0 1-1.97-1.97v-.985Zm29.556 0a1.97 1.97 0 0 1 1.97-1.97h.985a1.97 1.97 0 0 1 1.97 1.97v.985a1.97 1.97 0 0 1-1.97 1.97h-.985a1.97 1.97 0 0 1-1.97-1.97v-.985Zm68.963 0a1.968 1.968 0 0 1 1.97-1.97h10.837a1.968 1.968 0 0 1 1.97 1.97v.985a1.968 1.968 0 0 1-1.97 1.97h-10.837a1.968 1.968 0 0 1-1.97-1.97v-.985Zm19.703 0a1.972 1.972 0 0 1 1.971-1.97h.985a1.97 1.97 0 0 1 1.97 1.97v.985a1.968 1.968 0 0 1-1.97 1.97h-.985a1.972 1.972 0 0 1-1.971-1.97v-.985Zm-24.629 4.925a1.968 1.968 0 0 1 1.97-1.97h.985a1.968 1.968 0 0 1 1.971 1.97v10.838a1.968 1.968 0 0 0 1.97 1.97h.985a1.968 1.968 0 0 1 1.97 1.97V91.77a1.968 1.968 0 0 1-1.97 1.97h-5.911a1.968 1.968 0 0 1-1.97-1.97v-.985a1.968 1.968 0 0 1 1.97-1.97h.985a1.968 1.968 0 0 0 1.971-1.97v-.986a1.97 1.97 0 0 0-1.971-1.97h-.985a1.968 1.968 0 0 0-1.97 1.97v.985a1.973 1.973 0 0 1-1.971 1.97h-.985a1.968 1.968 0 0 0-1.97 1.971v.985a1.972 1.972 0 0 1-1.971 1.97h-5.911a1.97 1.97 0 0 1-1.97-1.97v-.985a1.97 1.97 0 0 1 1.97-1.97h.985a1.972 1.972 0 0 0 1.971-1.97v-.986a1.973 1.973 0 0 0-1.971-1.97h-5.91a1.97 1.97 0 0 0-1.971 1.97v.985a1.97 1.97 0 0 1-1.97 1.97h-.986a1.97 1.97 0 0 1-1.97-1.97v-.985a1.97 1.97 0 0 0-1.97-1.97h-5.912a1.97 1.97 0 0 0-1.97 1.97v5.911a1.97 1.97 0 0 1-1.97 1.97h-.985a1.97 1.97 0 0 1-1.97-1.97V80.933a1.97 1.97 0 0 1 1.97-1.97h.985a1.97 1.97 0 0 0 1.97-1.97v-.986a1.97 1.97 0 0 1 1.97-1.97h.986a1.97 1.97 0 0 0 1.97-1.97v-.986a1.97 1.97 0 0 1 1.97-1.97h.986a1.97 1.97 0 0 0 1.97-1.97v-.986a1.97 1.97 0 0 1 1.97-1.97h.986a1.97 1.97 0 0 1 1.97 1.97v.986a1.97 1.97 0 0 0 1.97 1.97h.986a1.97 1.97 0 0 1 1.97 1.97v5.911a1.97 1.97 0 0 0 1.97 1.97h.985a1.972 1.972 0 0 0 1.971-1.97v-.985a1.968 1.968 0 0 1 1.97-1.97h5.911a1.972 1.972 0 0 0 1.971-1.97v-.986a1.972 1.972 0 0 0-1.971-1.97h-5.911a1.97 1.97 0 0 1-1.97-1.97v-.986a1.968 1.968 0 0 1 1.97-1.97h5.911a1.972 1.972 0 0 0 1.971-1.97v-.986Zm-24.63 14.778a1.97 1.97 0 0 1 1.97-1.97h.986a1.97 1.97 0 0 1 1.97 1.97v.985a1.97 1.97 0 0 1-1.97 1.97h-.986a1.97 1.97 0 0 1-1.97-1.97v-.985Zm44.333-14.778a1.972 1.972 0 0 1 1.971-1.97h.985a1.97 1.97 0 0 1 1.97 1.97v.986a1.968 1.968 0 0 1-1.97 1.97h-.985a1.972 1.972 0 0 1-1.971-1.97v-.986ZM20.926 66.156a1.97 1.97 0 0 1 1.97-1.97h.986a1.97 1.97 0 0 1 1.97 1.97v.986a1.97 1.97 0 0 0 1.97 1.97h5.911a1.97 1.97 0 0 1 1.97 1.97v.986a1.97 1.97 0 0 1-1.97 1.97H22.896a1.97 1.97 0 0 1-1.97-1.97v-5.912Zm29.556 0a1.97 1.97 0 0 1 1.97-1.97h.985a1.97 1.97 0 0 1 1.97 1.97v.986a1.97 1.97 0 0 1-1.97 1.97h-.985a1.97 1.97 0 0 1-1.97-1.97v-.986Zm73.888 4.926a1.97 1.97 0 0 1 1.971-1.97h5.911a1.968 1.968 0 0 1 1.97 1.97v.986a1.972 1.972 0 0 0 1.971 1.97h5.911a1.97 1.97 0 0 1 1.97 1.97v5.911a1.968 1.968 0 0 1-1.97 1.97h-.985a1.972 1.972 0 0 1-1.971-1.97v-.985a1.968 1.968 0 0 0-1.97-1.97h-5.911a1.972 1.972 0 0 1-1.971-1.97v-.986a1.968 1.968 0 0 0-1.97-1.97h-.985a1.968 1.968 0 0 1-1.971-1.97v-.986Zm-93.592 9.852a1.97 1.97 0 0 1 1.97-1.97h10.837a1.97 1.97 0 0 1 1.97 1.97v.985a1.97 1.97 0 0 1-1.97 1.97h-5.91a1.97 1.97 0 0 0-1.971 1.971v.985a1.97 1.97 0 0 0 1.97 1.97h5.911a1.97 1.97 0 0 1 1.97 1.971v.985a1.97 1.97 0 0 1-1.97 1.97H42.6a1.97 1.97 0 0 0-1.97 1.971v.985a1.97 1.97 0 0 1-1.97 1.97h-.986a1.97 1.97 0 0 1-1.97-1.97v-.985a1.97 1.97 0 0 0-1.97-1.97h-.986a1.97 1.97 0 0 1-1.97-1.97v-.986a1.97 1.97 0 0 0-1.97-1.97h-.986a1.97 1.97 0 0 1-1.97-1.97v-.986a1.97 1.97 0 0 1 1.97-1.97h.986a1.97 1.97 0 0 0 1.97-1.97v-.986Zm19.704 4.926a1.97 1.97 0 0 1 1.97-1.97h.985a1.97 1.97 0 0 1 1.97 1.97v.985a1.97 1.97 0 0 1-1.97 1.97h-.985a1.97 1.97 0 0 1-1.97-1.97v-.985Zm9.851 0a1.97 1.97 0 0 1 1.97-1.97h.986a1.97 1.97 0 0 1 1.97 1.97v.985a1.97 1.97 0 0 1-1.97 1.97h-.985a1.97 1.97 0 0 1-1.97-1.97v-.985Zm68.963 0a1.973 1.973 0 0 1 1.971-1.97h5.911a1.97 1.97 0 0 1 1.97 1.97v.985a1.968 1.968 0 0 1-1.97 1.97h-5.911a1.972 1.972 0 0 1-1.971-1.97v-.985Zm-108.37 4.926a1.97 1.97 0 0 1 1.97-1.97h.986a1.97 1.97 0 0 1 1.97 1.97v.985a1.97 1.97 0 0 1-1.97 1.97h-.986a1.97 1.97 0 0 1-1.97-1.97v-.985Zm118.222 0a1.972 1.972 0 0 1 1.971-1.97h.985a1.97 1.97 0 0 1 1.97 1.97v20.689a1.966 1.966 0 0 1-1.97 1.97h-.985a1.97 1.97 0 0 1-1.971-1.97v-.985a1.97 1.97 0 0 0-1.97-1.971h-5.911a1.97 1.97 0 0 1-1.971-1.97v-5.911a1.968 1.968 0 0 0-1.97-1.97h-.985a1.968 1.968 0 0 1-1.971-1.97v-.986a1.97 1.97 0 0 1 1.971-1.97h10.837a1.97 1.97 0 0 0 1.97-1.97v-.986Zm-4.926 9.852a1.972 1.972 0 0 1 1.971-1.97h.985a1.97 1.97 0 0 1 1.97 1.97v.985a1.966 1.966 0 0 1-1.97 1.97h-.985a1.97 1.97 0 0 1-1.971-1.97v-.985Zm-88.666-4.926a1.97 1.97 0 0 1 1.97-1.97h5.911a1.97 1.97 0 0 1 1.97 1.97v.985a1.97 1.97 0 0 1-1.97 1.97h-5.911a1.97 1.97 0 0 1-1.97-1.97v-.985Zm14.777 0a1.97 1.97 0 0 1 1.97-1.97h5.912a1.97 1.97 0 0 1 1.97 1.97v.985a1.97 1.97 0 0 1-1.97 1.97h-.985a1.97 1.97 0 0 0-1.97 1.971v.985a1.968 1.968 0 0 1-1.971 1.97h-.985a1.968 1.968 0 0 1-1.97-1.97v-5.911Zm19.704 0a1.97 1.97 0 0 1 1.97-1.97h5.912a1.97 1.97 0 0 1 1.97 1.97v.985a1.97 1.97 0 0 0 1.97 1.97h.986a1.97 1.97 0 0 1 1.97 1.971v.985a1.968 1.968 0 0 1-1.97 1.97h-.986a1.97 1.97 0 0 0-1.97 1.971v.985a1.968 1.968 0 0 1-1.97 1.97h-.986a1.968 1.968 0 0 1-1.97-1.97v-5.911a1.97 1.97 0 0 0-1.97-1.97h-.986a1.97 1.97 0 0 1-1.97-1.97v-.986Zm14.778 0a1.97 1.97 0 0 1 1.97-1.97h.986a1.97 1.97 0 0 1 1.97 1.97v.985a1.97 1.97 0 0 1-1.97 1.97h-.986a1.97 1.97 0 0 1-1.97-1.97v-.985Zm-24.63 9.852a1.968 1.968 0 0 1 1.97-1.971h.986a1.97 1.97 0 0 1 1.97 1.971v.985a1.968 1.968 0 0 1-1.97 1.97h-.985a1.968 1.968 0 0 1-1.97-1.97v-.985Zm4.926 4.926a1.972 1.972 0 0 1 1.97-1.971h.986a1.972 1.972 0 0 1 1.97 1.971v.985a1.968 1.968 0 0 1-1.97 1.97h-.985a1.968 1.968 0 0 1-1.97-1.97v-.985Zm19.704 0a1.972 1.972 0 0 1 1.97-1.971h.986a1.972 1.972 0 0 1 1.97 1.971v.985a1.968 1.968 0 0 1-1.97 1.97h-.986a1.968 1.968 0 0 1-1.97-1.97v-.985Zm-4.926 4.926a1.972 1.972 0 0 1 1.97-1.971h.986a1.972 1.972 0 0 1 1.97 1.971v.985a1.97 1.97 0 0 1-1.97 1.97h-.986a1.968 1.968 0 0 1-1.97-1.97v-.985Zm34.481 0a1.971 1.971 0 0 1 1.971-1.971h.985a1.97 1.97 0 0 1 1.97 1.971v.985a1.972 1.972 0 0 0 1.971 1.97h.985a1.966 1.966 0 0 0 1.97-1.97v-.985a1.974 1.974 0 0 1 1.971-1.971h.985a1.972 1.972 0 0 1 1.97 1.971v.985a1.972 1.972 0 0 0 1.971 1.97h.985a1.972 1.972 0 0 1 1.97 1.971v.985a1.968 1.968 0 0 1-1.97 1.97h-.985a1.974 1.974 0 0 0-1.971 1.971v.985a1.97 1.97 0 0 1-1.97 1.97h-.985a1.974 1.974 0 0 0-1.971 1.97v.986a1.974 1.974 0 0 0 1.971 1.97h5.911a1.972 1.972 0 0 1 1.97 1.97v.986a1.97 1.97 0 0 1-1.97 1.97h-25.615a1.97 1.97 0 0 1-1.97-1.97v-.986a1.97 1.97 0 0 1 1.97-1.97h.985a1.97 1.97 0 0 0 1.971-1.97v-10.837a1.97 1.97 0 0 1 1.97-1.971h.985a1.966 1.966 0 0 0 1.97-1.97v-.985Zm0 9.852a1.971 1.971 0 0 1 1.971-1.971h.985a1.97 1.97 0 0 1 1.97 1.971v5.911a1.97 1.97 0 0 1-1.97 1.97h-.985a1.97 1.97 0 0 1-1.971-1.97v-5.911Zm-64.037-4.926a1.972 1.972 0 0 1 1.97-1.971h.986a1.973 1.973 0 0 1 1.97 1.971v5.911a1.971 1.971 0 0 0 1.97 1.97h.986a1.972 1.972 0 0 0 1.97-1.97v-.985a1.972 1.972 0 0 1 1.97-1.971h.986a1.972 1.972 0 0 1 1.97 1.971v.985a1.972 1.972 0 0 0 1.97 1.97h5.912a1.973 1.973 0 0 0 1.97-1.97v-5.911a1.972 1.972 0 0 1 1.97-1.971h.986a1.972 1.972 0 0 1 1.97 1.971v5.911a1.972 1.972 0 0 0 1.97 1.97h.986a1.972 1.972 0 0 1 1.97 1.97v.986a1.972 1.972 0 0 1-1.97 1.97h-5.912a1.972 1.972 0 0 0-1.97 1.97v.986a1.972 1.972 0 0 1-1.97 1.97h-5.911a1.972 1.972 0 0 1-1.97-1.97v-.986a1.972 1.972 0 0 0-1.971-1.97H67.23a1.972 1.972 0 0 0-1.97 1.97v.986a1.972 1.972 0 0 1-1.971 1.97h-.985a1.973 1.973 0 0 1-1.97-1.97v-15.763Zm44.334 0a1.97 1.97 0 0 1 1.97-1.971h5.911a1.974 1.974 0 0 1 1.971 1.971v5.911a1.974 1.974 0 0 1-1.971 1.97h-.985a1.97 1.97 0 0 1-1.97-1.97v-.985a1.974 1.974 0 0 0-1.971-1.971h-.985a1.968 1.968 0 0 1-1.97-1.97v-.985Zm-9.852 4.926a1.972 1.972 0 0 1 1.97-1.971h5.911a1.974 1.974 0 0 1 1.971 1.971v.985a1.974 1.974 0 0 1-1.971 1.97h-5.91a1.972 1.972 0 0 1-1.971-1.97v-.985Zm9.852 4.925a1.97 1.97 0 0 1 1.97-1.97h.985a1.974 1.974 0 0 1 1.971 1.97v5.912a1.974 1.974 0 0 1-1.971 1.97h-.985a1.972 1.972 0 0 1-1.97-1.97v-5.912Zm-9.852 4.926a1.972 1.972 0 0 1 1.97-1.97h.986a1.972 1.972 0 0 1 1.97 1.97v.986a1.972 1.972 0 0 1-1.97 1.97h-.986a1.972 1.972 0 0 1-1.97-1.97v-.986Z" fill="#7B1FA2"/>
      <path d="M26.098 14.926h24.137a5.172 5.172 0 0 1 5.172 5.172v24.137a5.172 5.172 0 0 1-5.172 5.172H26.098a5.173 5.173 0 0 1-5.172-5.172V20.098a5.172 5.172 0 0 1 5.172-5.172Zm3.448 4.926h17.241a3.694 3.694 0 0 1 3.695 3.694v17.24a3.695 3.695 0 0 1-3.695 3.695h-17.24a3.695 3.695 0 0 1-3.695-3.694v-17.24a3.694 3.694 0 0 1 3.694-3.695Zm3.449 4.926h10.344a2.217 2.217 0 0 1 2.217 2.216V37.34a2.217 2.217 0 0 1-2.217 2.216H32.995a2.216 2.216 0 0 1-2.217-2.216V26.994a2.217 2.217 0 0 1 2.217-2.216Zm81.77-9.852h24.137a5.171 5.171 0 0 1 5.172 5.172v24.137a5.172 5.172 0 0 1-5.172 5.172h-24.137a5.171 5.171 0 0 1-5.172-5.172V20.098a5.172 5.172 0 0 1 5.172-5.172Zm3.448 4.926h17.241a3.693 3.693 0 0 1 3.694 3.694v17.24a3.694 3.694 0 0 1-3.694 3.695h-17.241a3.694 3.694 0 0 1-3.694-3.694v-17.24a3.694 3.694 0 0 1 3.694-3.695Zm3.448 4.926h10.345a2.216 2.216 0 0 1 2.216 2.216V37.34a2.223 2.223 0 0 1-.649 1.567 2.218 2.218 0 0 1-1.567.65h-10.345a2.216 2.216 0 0 1-2.216-2.217V26.994a2.215 2.215 0 0 1 2.216-2.216Zm-95.563 78.814h24.137a5.172 5.172 0 0 1 5.172 5.173v24.137a5.173 5.173 0 0 1-5.172 5.172H26.098a5.172 5.172 0 0 1-5.172-5.172v-24.137a5.174 5.174 0 0 1 5.172-5.173Zm3.448 4.926h17.241a3.698 3.698 0 0 1 3.695 3.695v17.241a3.696 3.696 0 0 1-3.695 3.694h-17.24a3.694 3.694 0 0 1-3.695-3.694v-17.241a3.696 3.696 0 0 1 3.694-3.695Zm3.449 4.926h10.344a2.225 2.225 0 0 1 1.567.65 2.207 2.207 0 0 1 .65 1.567v10.344a2.22 2.22 0 0 1-1.369 2.048 2.206 2.206 0 0 1-.848.169H32.995a2.215 2.215 0 0 1-2.217-2.217v-10.344a2.216 2.216 0 0 1 2.217-2.217Zm70.44-19.703h17.241a3.692 3.692 0 0 1 3.694 3.694v17.241a3.693 3.693 0 0 1-3.694 3.694h-17.241a3.693 3.693 0 0 1-3.694-3.694V97.435a3.694 3.694 0 0 1 3.694-3.694Zm3.448 4.925h10.345a2.214 2.214 0 0 1 2.217 2.217v10.345a2.216 2.216 0 0 1-2.217 2.216h-10.345a2.216 2.216 0 0 1-2.216-2.216v-10.345a2.214 2.214 0 0 1 2.216-2.216Zm3.449 4.926h3.448c.196 0 .384.078.522.217a.736.736 0 0 1 .217.522v3.448a.74.74 0 0 1-.739.739h-3.448a.739.739 0 0 1-.739-.739v-3.448a.739.739 0 0 1 .739-.739Z" fill="#512DA8"/>
    </g>
  </g>
  <defs>
    <clipPath id="a">
      <path d="M0 0h390v155H0z" fill="#fff"/>
    </clipPath>
    <clipPath id="b">
      <path d="M0 0h133v133H0z" fill="#fff" transform="translate(16 10)"/>
    </clipPath>
  </defs>
</svg>