<svg fill="none" viewBox="0 0 16 20" xmlns="http://www.w3.org/2000/svg">
  <path
    d="M7.141 0h1.718c2.014 0 3.094.278 4.072.801a5.452 5.452 0 0 1 2.268 2.268c.523.978.801 2.058.801 4.072v5.718c0 2.014-.278 3.094-.801 4.072a5.452 5.452 0 0 1-2.268 2.268c-.978.523-2.058.801-4.072.801H7.14c-2.014 0-3.094-.278-4.072-.801A5.452 5.452 0 0 1 .8 16.931c-.522-.978-.8-2.058-.8-4.072V7.14c0-2.014.278-3.094.801-4.072A5.452 5.452 0 0 1 3.07.801C4.047.278 5.127 0 7.141 0ZM7 4v5h2V4H7Z"
    fill="url(#a)"/>
  <defs>
    <linearGradient gradientUnits="userSpaceOnUse" id="a" x1="0" x2="19.512" y1="0" y2="15.61">
      <stop stop-color="#FFF6B7"/>
      <stop offset="1" stop-color="#F6416C"/>
    </linearGradient>
  </defs>
</svg>
