<svg fill="none" viewBox="0 0 11 19" xmlns="http://www.w3.org/2000/svg">
  <path
    d="M.786 0h9.428c.209 0 .409.1.556.278.147.178.23.42.23.672v17.1c0 .252-.083.494-.23.672a.724.724 0 0 1-.556.278H.786a.724.724 0 0 1-.556-.278A1.06 1.06 0 0 1 0 18.05V.95C0 .698.083.456.23.278A.724.724 0 0 1 .786 0ZM5.5 14.25c-.208 0-.408.1-.556.278a1.06 1.06 0 0 0-.23.672c0 .252.083.494.23.672a.724.724 0 0 0 .556.278c.208 0 .408-.1.556-.278.147-.178.23-.42.23-.672a1.06 1.06 0 0 0-.23-.672.724.724 0 0 0-.556-.278Z"
    fill="url(#a)"/>
  <defs>
    <linearGradient gradientUnits="userSpaceOnUse" id="a" x1="0" x2="16.477" y1="0" y2="9.539">
      <stop stop-color="#CE9FFC"/>
      <stop offset="1" stop-color="#7367F0"/>
    </linearGradient>
  </defs>
</svg>
