<svg fill="none" viewBox="0 0 18 18" xmlns="http://www.w3.org/2000/svg">
  <path d="M2.33.271a3.5 3.5 0 0 1 4.472 4.474L17.647 15.59l-2.122 2.121L4.68 6.867A3.5 3.5 0 0 1 .208 2.393L2.444 4.63a1.5 1.5 0 1 0 2.121-2.121L2.329.27l.001.001Zm10.367 1.884L15.879.387l1.414 1.414-1.768 3.182-1.768.354-2.12 2.121-1.415-1.414 2.121-2.121.354-1.768ZM5.626 9.933l2.121 2.122-4.95 4.95A1.5 1.5 0 0 1 .58 14.99l.097-.107 4.95-4.95h-.001Z" fill="url(#a)"/>
  <defs>
    <linearGradient gradientUnits="userSpaceOnUse" id="a" x1=".004" x2="17.648" y1=".068" y2="17.71">
      <stop stop-color="#EECE13"/>
      <stop offset="1" stop-color="#B210FF"/>
    </linearGradient>
  </defs>
</svg>
