<svg fill="none" viewBox="0 0 17 20" xmlns="http://www.w3.org/2000/svg">
  <path
    d="M.944 0h15.112c.25 0 .49.105.667.293C16.901.48 17 .735 17 1v18c0 .265-.1.52-.277.707a.919.919 0 0 1-.667.293H.944a.919.919 0 0 1-.667-.293A1.03 1.03 0 0 1 0 19V1C0 .735.1.48.277.293A.919.919 0 0 1 .944 0ZM8.5 18c1.252 0 2.454-.527 3.34-1.465A5.153 5.153 0 0 0 13.221 13a5.153 5.153 0 0 0-1.383-3.536C10.953 8.527 9.752 8 8.5 8c-1.252 0-2.454.527-3.34 1.464A5.153 5.153 0 0 0 3.779 13c0 1.326.497 2.598 1.383 3.535C6.046 17.473 7.248 18 8.5 18Zm0-12c.376 0 .736-.158 1.002-.44.265-.28.415-.662.415-1.06s-.15-.78-.415-1.06A1.378 1.378 0 0 0 8.5 3c-.376 0-.736.158-1.002.44a1.546 1.546 0 0 0-.415 1.06c0 .398.15.78.415 1.06.266.282.626.44 1.002.44Zm0 10a2.756 2.756 0 0 1-2.003-.879A3.092 3.092 0 0 1 5.667 13c0-.796.298-1.559.83-2.121A2.756 2.756 0 0 1 8.5 10c.751 0 1.472.316 2.004.879.53.562.83 1.325.83 2.121s-.3 1.559-.83 2.121A2.756 2.756 0 0 1 8.5 16Z"
    fill="url(#a)"/>
  <defs>
    <linearGradient gradientUnits="userSpaceOnUse" id="a" x1="0" x2="19.739" y1="0" y2="16.778">
      <stop stop-color="#F761A1"/>
      <stop offset="1" stop-color="#8C1BAB"/>
    </linearGradient>
  </defs>
</svg>
